<svg id="Layer_1" data-name="Layer 1" xmlns="http://www.w3.org/2000/svg" xmlns:xlink="http://www.w3.org/1999/xlink" width="13.83" height="13.83" viewBox="0 0 13.83 13.83"><defs><style>.cls-1{fill:url(#linear-gradient);}</style><linearGradient id="linear-gradient" x1="-383" y1="284.56" x2="-383" y2="283.57" gradientTransform="matrix(14, 0, 0, -14, 5369, 3983.92)" gradientUnits="userSpaceOnUse"><stop offset="0" stop-color="#0065b0"/><stop offset="1" stop-color="#008ecf"/></linearGradient></defs><title>Preferences</title><g id="noun_Settings_1391038" data-name="noun Settings 1391038"><path id="Path_33" data-name="Path 33" class="cls-1" d="M13.79,6.07l-1.17-.69a5.29,5.29,0,0,0-.47-1.13l.36-1.31a.27.27,0,0,0-.07-.27L11.38,1.61a.28.28,0,0,0-.25-.07l-1.31.34a5.69,5.69,0,0,0-1.11-.47L8,.23A.24.24,0,0,0,7.79.09H6.3a.29.29,0,0,0-.23.12L5.38,1.38a5.29,5.29,0,0,0-1.13.47L2.94,1.49a.27.27,0,0,0-.27.07L1.61,2.62a.28.28,0,0,0-.07.25l.34,1.31a5.69,5.69,0,0,0-.47,1.11L.23,6a.24.24,0,0,0-.14.23V7.7a.29.29,0,0,0,.12.23l1.17.69a5.29,5.29,0,0,0,.47,1.13l-.36,1.31a.27.27,0,0,0,.07.27l1.06,1.06a.28.28,0,0,0,.25.07l1.31-.34a5.69,5.69,0,0,0,1.11.47L6,13.77a.24.24,0,0,0,.23.14H7.7a.29.29,0,0,0,.23-.12l.69-1.17a5.29,5.29,0,0,0,1.13-.47l1.31.36a.27.27,0,0,0,.27-.07l1.06-1.06a.28.28,0,0,0,.07-.25l-.34-1.31a5.69,5.69,0,0,0,.47-1.11L13.77,8a.24.24,0,0,0,.14-.23V6.3A.29.29,0,0,0,13.79,6.07ZM9.57,7A2.57,2.57,0,1,1,7,4.49H7A2.56,2.56,0,0,1,9.57,7Z" transform="translate(-0.09 -0.09)"/></g></svg>