<svg id="Layer_1" data-name="Layer 1" xmlns="http://www.w3.org/2000/svg" width="17" height="14" viewBox="0 0 17 14"><defs><style>.cls-1{fill:#fff;}</style></defs><title>advertiser</title><g id="noun_marketing_1725772" data-name="noun marketing 1725772"><g id="Group_73" data-name="Group 73"><path id="Path_32" data-name="Path 32" class="cls-1" d="M13.65,2.73V1.38a.34.34,0,0,0-.31-.33h0a.31.31,0,0,0-.2.07L11.59,2.28V4.33l1.52,1.16a.34.34,0,0,0,.47-.06.31.31,0,0,0,.07-.18V3.85a.56.56,0,0,0,.51-.56A.56.56,0,0,0,13.65,2.73Z"/><path id="Path_33" data-name="Path 33" class="cls-1" d="M15,2a.25.25,0,0,0-.35-.06h0a.25.25,0,0,0,0,.34,1.71,1.71,0,0,1-.08,2.07.29.29,0,0,0,0,.35.25.25,0,0,0,.36,0h0A2.3,2.3,0,0,0,15,2Z"/><path id="Path_34" data-name="Path 34" class="cls-1" d="M15.62,1.38a.25.25,0,0,0-.33-.08l0,0h0a.27.27,0,0,0,0,.36,2.6,2.6,0,0,1,0,3.17.27.27,0,0,0,0,.36h0a.28.28,0,0,0,.38,0h0A3.17,3.17,0,0,0,15.62,1.38Z"/><circle id="Ellipse_43" data-name="Ellipse 43" class="cls-1" cx="5.49" cy="3.04" r="2.36"/><path id="Path_35" data-name="Path 35" class="cls-1" d="M10.66,5.25l-.25-.92h.79V2.28H9.52A.57.57,0,0,0,9,2.83H8.78A.19.19,0,0,0,8.6,3h0v.54a.18.18,0,0,0,.18.18H9a.57.57,0,0,0,.56.59h.06L9.87,5.5a.94.94,0,0,0-.27.76,5.3,5.3,0,0,1,0,1.59A6.75,6.75,0,0,1,9,7.18C8.34,6.5,7.8,5.92,7.13,5.92H6.81L6,8,5.71,6.64a.24.24,0,0,0,.23-.24V6.16a.27.27,0,0,0-.25-.25H5.31a.28.28,0,0,0-.26.25v.27a.24.24,0,0,0,.26.21L5,8,4.18,5.92H4.06A2,2,0,0,0,2.27,7.07l-.09.19a11,11,0,0,0-.91,2.05c-.16.6-.53,2.33-.53,2.33a.92.92,0,0,0,.7,1.07h.19A.91.91,0,0,0,2.54,12s.34-1.71.47-2.25a4.5,4.5,0,0,1,.38-.91l-.12,3.91a.56.56,0,0,0,.53.59H7.13a.58.58,0,0,0,.58-.57h0l-.1-4.32c.71.78,1.45,1.58,2.4,1.4.52-.12,1.74-.68,1.37-3.78A.9.9,0,0,0,10.66,5.25Z"/></g></g></svg>