<svg id="Layer_1" data-name="Layer 1" xmlns="http://www.w3.org/2000/svg" width="20" height="20" viewBox="0 0 20 20"><defs><style>.cls-1{fill:#a2a1a1;fill-rule:evenodd;}</style></defs><title>calendar</title><path class="cls-1" d="M6.3,2A.37.37,0,0,0,6,2.38V3.44H4a2,2,0,0,0-2,2V16a2,2,0,0,0,2,2H16a2,2,0,0,0,2-2V5.47a2,2,0,0,0-2-2H14V2.38A.37.37,0,0,0,13.61,2h0a.37.37,0,0,0-.36.37h0V3.44H6.7V2.38A.37.37,0,0,0,6.34,2h0ZM4,4.17H6V5.23a.37.37,0,0,0,.73,0h0V4.17h6.54V5.23a.37.37,0,0,0,.37.36A.36.36,0,0,0,14,5.23h0V4.17h2a1.3,1.3,0,0,1,1.3,1.3V7.31H2.74V5.47A1.3,1.3,0,0,1,4,4.17Z"/></svg>