<svg id="Layer_1" data-name="Layer 1" xmlns="http://www.w3.org/2000/svg" width="17" height="14" viewBox="0 0 17 14"><defs><style>.cls-1{fill:#fff;}</style></defs><title>combos</title><path class="cls-1" d="M6,4a5,5,0,0,1,2.5.68A5,5,0,0,1,11,4,4.89,4.89,0,0,1,13,4.4a4.49,4.49,0,0,0-8.9,0A4.89,4.89,0,0,1,6,4Z"/><path class="cls-1" d="M6,9.33A5,5,0,0,1,3.51,5.25,4.5,4.5,0,0,0,8,13,5,5,0,0,1,6,9.33Z"/><path class="cls-1" d="M6,8.75A5,5,0,0,1,8,5,4.47,4.47,0,0,0,4,5V5A4.5,4.5,0,0,0,6,8.75Z"/><path class="cls-1" d="M13.49,5.25A5,5,0,0,1,11,9.33,5,5,0,0,1,9,13a4.5,4.5,0,0,0,4.52-7.76Z"/><path class="cls-1" d="M13,5V5A4.47,4.47,0,0,0,9,5a5,5,0,0,1,2,3.76A4.5,4.5,0,0,0,13,5Z"/><path class="cls-1" d="M10.45,9.6a5,5,0,0,1-3.9,0,4.46,4.46,0,0,0,2,3.14A4.46,4.46,0,0,0,10.45,9.6Z"/><path class="cls-1" d="M8.5,9.5a4.46,4.46,0,0,0,2-.47V9a4.49,4.49,0,0,0-2-3.74A4.49,4.49,0,0,0,6.5,9V9A4.46,4.46,0,0,0,8.5,9.5Z"/></svg>