<svg id="Layer_1" data-name="Layer 1" xmlns="http://www.w3.org/2000/svg" width="17" height="14" viewBox="0 0 17 14"><defs><style>.cls-1{fill:#fff;}</style></defs><title>confi</title><path class="cls-1" d="M14.66,5.89l-1.59-.14a4.27,4.27,0,0,0-.46-1.1l1-1.22a.29.29,0,0,0,0-.38L12.45,1.87a.28.28,0,0,0-.38,0l-1.22,1a4.83,4.83,0,0,0-1.1-.46L9.61.83A.27.27,0,0,0,9.34.58H7.66a.27.27,0,0,0-.27.25L7.25,2.42a4.65,4.65,0,0,0-1.1.46l-1.22-1a.28.28,0,0,0-.38,0L3.37,3.05a.28.28,0,0,0,0,.38l1,1.22a4.83,4.83,0,0,0-.46,1.1l-1.59.14a.27.27,0,0,0-.25.27V7.84a.27.27,0,0,0,.25.27l1.59.14a4.65,4.65,0,0,0,.46,1.1l-1,1.22a.28.28,0,0,0,0,.38l1.18,1.18a.28.28,0,0,0,.38,0l1.22-1a5,5,0,0,0,1.1.46l.14,1.59a.27.27,0,0,0,.27.25H9.34a.27.27,0,0,0,.27-.25l.14-1.59a4.65,4.65,0,0,0,1.1-.46l1.22,1a.28.28,0,0,0,.38,0L13.63,11a.28.28,0,0,0,0-.38l-1-1.22a5,5,0,0,0,.46-1.1l1.59-.14a.27.27,0,0,0,.25-.28V6.16A.27.27,0,0,0,14.66,5.89Zm-5.78,3a2,2,0,1,1,1.54-1.54A2,2,0,0,1,8.88,8.92Z"/></svg>