<svg id="Layer_1" data-name="Layer 1" xmlns="http://www.w3.org/2000/svg" width="18" height="18" viewBox="0 0 18 18"><defs><style>.cls-1{fill:#a2a2a2;fill-rule:evenodd;}</style></defs><title>create</title><g id="noun_add_1581558" data-name="noun add 1581558"><g id="Group_67" data-name="Group 67"><g id="Group_66" data-name="Group 66"><g id="Group_65" data-name="Group 65"><path id="Path_27" data-name="Path 27" class="cls-1" d="M7.71,1.29V7.72H1.29A1.28,1.28,0,0,0,0,9H0a1.29,1.29,0,0,0,1.29,1.29H7.72v6.43A1.28,1.28,0,0,0,9,18H9a1.29,1.29,0,0,0,1.29-1.29V10.29h6.43A1.29,1.29,0,0,0,18,9h0a1.29,1.29,0,0,0-1.29-1.29H10.29V1.29A1.29,1.29,0,0,0,9,0H9A1.29,1.29,0,0,0,7.71,1.29Z"/></g></g></g></g></svg>