<svg id="Layer_1" data-name="Layer 1" xmlns="http://www.w3.org/2000/svg" width="23" height="13.8" viewBox="0 0 23 13.8"><defs><style>.cls-1{fill:#a2a2a2;fill-rule:evenodd;}</style></defs><title>filter</title><g id="noun_filter_1411705" data-name="noun filter 1411705"><path id="Path_24" data-name="Path 24" class="cls-1" d="M21.85,2.3H1.15a1.15,1.15,0,0,1,0-2.3h20.7a1.15,1.15,0,0,1,0,2.3ZM4.62,5.75h13.8a1.15,1.15,0,0,1,0,2.3H4.62A1.16,1.16,0,0,1,3.47,6.9,1.13,1.13,0,0,1,4.58,5.75ZM8.06,11.5h6.88a1.15,1.15,0,0,1,0,2.3H8.06a1.17,1.17,0,0,1-1.15-1.15A1.15,1.15,0,0,1,8.05,11.5Z" transform="translate(0 0)"/></g></svg>