<svg id="Layer_1" data-name="Layer 1" xmlns="http://www.w3.org/2000/svg" width="17" height="14" viewBox="0 0 17 14"><defs><style>.cls-1{fill:#0b8ece;}</style></defs><title>select channel</title><g id="noun_channels_1207548" data-name="noun channels 1207548"><path id="Path_36" data-name="Path 36" class="cls-1" d="M6.64,5.53V8.44a.41.41,0,0,0,.4.41H10a.41.41,0,0,0,.41-.41h0V5.53A.41.41,0,0,0,10,5.12H7.05a.41.41,0,0,0-.41.41Zm.85.41H9.55V8H7.46Z"/><path id="Path_37" data-name="Path 37" class="cls-1" d="M8.92,4.07V2.83a1.31,1.31,0,1,0-.83,0V4.1ZM8.51,1.12A.48.48,0,0,1,9,1.6a.49.49,0,0,1-.48.48A.48.48,0,0,1,8,1.6H8A.48.48,0,0,1,8.51,1.12Z"/><path id="Path_38" data-name="Path 38" class="cls-1" d="M8.1,9.9v1.27A1.3,1.3,0,1,0,9.74,12a1.32,1.32,0,0,0-.86-.86V9.9Zm.41,3A.49.49,0,0,1,8,12.41a.48.48,0,0,1,1,0H9A.48.48,0,0,1,8.51,12.88Z"/><path id="Path_39" data-name="Path 39" class="cls-1" d="M10.86,5.21l.85-.9a1.32,1.32,0,1,0-.54-.58l-.85.9ZM12,2.83a.46.46,0,0,1,.65,0l0,0a.47.47,0,0,1,0,.67.49.49,0,0,1-.68,0,.46.46,0,0,1-.14-.35A.44.44,0,0,1,12,2.83Z"/><path id="Path_40" data-name="Path 40" class="cls-1" d="M6.15,8.79l-.9.86a1.29,1.29,0,0,0-1.49.24h0a1.29,1.29,0,1,0,1.82,1.84,1.29,1.29,0,0,0,.25-1.5l.9-.89ZM5,11.16a.47.47,0,0,1-.65.15.46.46,0,0,1-.16-.65.41.41,0,0,1,.16-.16h0a.47.47,0,0,1,.66.67Z"/><path id="Path_41" data-name="Path 41" class="cls-1" d="M13.26,9.9a1.29,1.29,0,0,0-1.5-.25l-.86-.86-.58.58.86.86a1.31,1.31,0,0,0,.24,1.5h0a1.3,1.3,0,0,0,1.84-1.84Zm-.59,1.26a.46.46,0,0,1-.65,0h0a.48.48,0,0,1,0-.66.46.46,0,0,1,.66,0,.48.48,0,0,1,0,.67Z"/><path id="Path_42" data-name="Path 42" class="cls-1" d="M5.59,2.24a1.29,1.29,0,1,0-.34,2.07l.9.9.58-.58-.9-.9A1.29,1.29,0,0,0,5.59,2.24ZM4.35,3.49a.47.47,0,0,1,0-.66.48.48,0,0,1,.65,0H5A.48.48,0,0,1,5,3.5a.49.49,0,0,1-.65,0Z"/><path id="Path_43" data-name="Path 43" class="cls-1" d="M13.92,5.69a1.28,1.28,0,0,0-1.23.85H11.42V7.4h1.27a1.31,1.31,0,0,0,1.64.82,1.29,1.29,0,0,0,.82-1.64,1.28,1.28,0,0,0-1.22-.89Zm0,1.77A.48.48,0,1,1,14.4,7h0A.47.47,0,0,1,13.92,7.46Z"/><path id="Path_44" data-name="Path 44" class="cls-1" d="M1.79,7a1.3,1.3,0,0,0,2.56.41H5.58V6.54H4.35A1.3,1.3,0,0,0,1.79,7ZM3.56,7a.47.47,0,0,1-.47.47h0A.49.49,0,0,1,2.64,7a.48.48,0,0,1,.48-.48h0A.48.48,0,0,1,3.56,7Z"/><rect id="Rectangle_132" data-name="Rectangle 132" class="cls-1" x="7.92" y="6.58" width="1.17" height="0.82"/></g></svg>