<svg id="Layer_1" data-name="Layer 1" xmlns="http://www.w3.org/2000/svg" width="17" height="14" viewBox="0 0 17 14"><defs><style>.cls-1{fill:#fff;}</style></defs><title>admin</title><path class="cls-1" d="M14.49,7,11.66,5.52a.47.47,0,0,0-.43,0l-1.52.85a5.11,5.11,0,0,0-1-.57A3.07,3.07,0,1,0,4.42,5a3.13,3.13,0,0,0,.77.77,4.68,4.68,0,0,0-2.91,4.34v2.21a.45.45,0,0,0,.44.45H9.65a4.26,4.26,0,0,0,1.22.79l.37.16.18,0,.18,0,.43-.17a4.36,4.36,0,0,0,2.69-4V7.44A.44.44,0,0,0,14.49,7Zm-.66,2.5a3.48,3.48,0,0,1-2.14,3.22h0l-.27.1-.21-.09A3.46,3.46,0,0,1,9.13,9.59V7.69l2.3-1.28,2.39,1.28Z"/></svg>