<svg id="Layer_1" data-name="Layer 1" xmlns="http://www.w3.org/2000/svg" width="20.94" height="21.12" viewBox="0 0 20.94 21.12"><defs><style>.cls-1{fill:#a2a2a2;}</style></defs><title>download</title><g id="noun_Download_1563391" data-name="noun Download 1563391"><path id="Union_1" data-name="Union 1" class="cls-1" d="M9.94,20.85,7.3,18.21A.88.88,0,0,1,8.55,17L9.69,18.1V10.55a.88.88,0,0,1,1.76,0V18.1L12.59,17a.87.87,0,0,1,1.24.05.89.89,0,0,1,0,1.2l-2.64,2.64a.88.88,0,0,1-1.25,0ZM0,11a4.41,4.41,0,0,1,3.5-4.76V6.14A6.16,6.16,0,0,1,15.59,4.39,5.28,5.28,0,0,1,15.85,15H14.09a.88.88,0,0,1,0-1.76h1.76a3.52,3.52,0,1,0,0-7,3.42,3.42,0,0,0-.71.07.87.87,0,0,1-1-.67.13.13,0,0,1,0-.06,4.4,4.4,0,1,0-8.74,1c0,.12,0,.25,0,.37a.86.86,0,0,1-.2.72,1,1,0,0,1-.68.31H4.36a2.64,2.64,0,0,0-.05,5.28H7.05a.88.88,0,0,1,0,1.76H4.4A4.4,4.4,0,0,1,0,11Z" transform="translate(0 0.01)"/></g></svg>