<svg id="Layer_1" data-name="Layer 1" xmlns="http://www.w3.org/2000/svg" width="17" height="14" viewBox="0 0 17 14"><defs><style>.cls-1{fill:#fff;}</style></defs><title>ratecard</title><path class="cls-1" d="M12.65.54H4.35A.47.47,0,0,0,3.89,1V13a.46.46,0,0,0,.46.46.47.47,0,0,0,.4-.22l1-1.65,1,1.65a.46.46,0,0,0,.63.16.49.49,0,0,0,.16-.16l1-1.65,1,1.65a.46.46,0,0,0,.63.16.61.61,0,0,0,.16-.16l1-1.65,1,1.65a.47.47,0,0,0,.4.22.24.24,0,0,0,.12,0,.46.46,0,0,0,.34-.46V1A.47.47,0,0,0,12.65.54ZM9,8.84H6.19a.46.46,0,0,1-.46-.46.47.47,0,0,1,.46-.46H9a.46.46,0,0,1,.46.46A.45.45,0,0,1,9,8.84ZM10.81,7H6.19a.47.47,0,0,1-.46-.46.46.46,0,0,1,.46-.46h4.62a.46.46,0,0,1,.46.46A.47.47,0,0,1,10.81,7ZM5.73,4.69a.47.47,0,0,1,.46-.46H9a.46.46,0,0,1,.46.46A.45.45,0,0,1,9,5.15H6.19A.46.46,0,0,1,5.73,4.69Zm5.08-1.38H6.19a.47.47,0,0,1-.46-.46.46.46,0,0,1,.46-.46h4.62a.46.46,0,0,1,.46.46A.47.47,0,0,1,10.81,3.31Z"/></svg>