<svg id="Layer_1" data-name="Layer 1" xmlns="http://www.w3.org/2000/svg" width="17" height="14" viewBox="0 0 17 14"><defs><style>.cls-1{fill:#fff;fill-rule:evenodd;}</style></defs><title>simulator</title><path class="cls-1" d="M7.12,4.24a.55.55,0,0,1,.55-.55.54.54,0,0,1,.55.55v1.1a.55.55,0,0,1-.55.56.56.56,0,0,1-.55-.56Zm1.66,0a.54.54,0,0,1,.55-.55.55.55,0,0,1,.55.55v1.1a.56.56,0,0,1-.55.56.55.55,0,0,1-.55-.56Z"/><path class="cls-1" d="M12.09,7a.55.55,0,0,1-.55.55H5.46A.55.55,0,0,1,4.91,7V2.58A.55.55,0,0,1,5.46,2h6.08a.55.55,0,0,1,.55.55Zm-.55,2.76H9.88a.55.55,0,0,1-.55-.55.54.54,0,0,1,.55-.55h1.66a.55.55,0,0,1,.55.55.55.55,0,0,1-.55.55Zm0,2.21H9.88a.56.56,0,0,1,0-1.11h1.66a.56.56,0,0,1,0,1.11ZM7.67,9.76H6a.56.56,0,0,1-.56-.55A.55.55,0,0,1,6,8.66H7.67a.54.54,0,0,1,.55.55.55.55,0,0,1-.55.55Zm0,2.21H6a.56.56,0,1,1,0-1.11H7.67a.56.56,0,0,1,0,1.11ZM12.09.38H4.91A1.65,1.65,0,0,0,3.26,2V12a1.65,1.65,0,0,0,1.65,1.65h7.18A1.65,1.65,0,0,0,13.74,12V2A1.65,1.65,0,0,0,12.09.38Z"/></svg>