<svg id="Layer_1" data-name="Layer 1" xmlns="http://www.w3.org/2000/svg" width="15.15" height="15.15" viewBox="0 0 15.15 15.15"><defs><style>.cls-1{fill:#fff;}</style></defs><title>prefrences</title><g id="noun_Settings_2147855" data-name="noun Settings 2147855"><path id="Path_67" data-name="Path 67" class="cls-1" d="M14.85,6.26,13,6.1a6.15,6.15,0,0,0-.54-1.3l1.21-1.43a.32.32,0,0,0,0-.44l-1.4-1.4a.32.32,0,0,0-.44,0L10.36,2.72a5.7,5.7,0,0,0-1.3-.55L8.9.3A.33.33,0,0,0,8.57,0h-2a.33.33,0,0,0-.33.3L6.1,2.17a5.7,5.7,0,0,0-1.3.55L3.37,1.5a.34.34,0,0,0-.45,0l-1.4,1.4a.32.32,0,0,0,0,.44L2.72,4.8a5.7,5.7,0,0,0-.55,1.3L.3,6.26a.33.33,0,0,0-.3.33v2a.33.33,0,0,0,.3.33l1.87.16a5.94,5.94,0,0,0,.54,1.3L1.5,11.79a.34.34,0,0,0,0,.45l1.4,1.4a.33.33,0,0,0,.45,0L4.8,12.44A5.67,5.67,0,0,0,6.1,13l.16,1.87a.33.33,0,0,0,.32.3h2a.32.32,0,0,0,.33-.3L9.05,13a5.26,5.26,0,0,0,1.3-.54l1.43,1.22a.34.34,0,0,0,.45,0l1.4-1.4a.34.34,0,0,0,0-.45l-1.22-1.43A5.67,5.67,0,0,0,13,9.06l1.88-.16a.33.33,0,0,0,.3-.33v-2A.33.33,0,0,0,14.85,6.26ZM8,9.84A2.3,2.3,0,1,1,9.84,7.13a2.27,2.27,0,0,1,0,.9A2.3,2.3,0,0,1,8,9.84Z" transform="translate(0 0)"/></g></svg>